# xmcd
#
# Track frame offsets: 
#        150
#        31525
#        55450
#        77730
#        99815
#        121677
#        142487
#        172670
#        189150
#        217672
#
# Disc length: 3160 seconds
#
# Revision: 0
# Processed by: cddbd v1.5.2PL0 Copyright (c) Steve Scherf et al.
# Submitted via: ExactAudioCopy v1.0b3
#
DISCID=710c560a
DTITLE=Various Artist - Mua Sai Gon
DYEAR=1996
DGENRE=
TTITLE0=Nhat Hao - Mua Sai Gon
TTITLE1=Lam Dung - Yeu em trong mua
TTITLE2=My Hanh - Mua ngau
TTITLE3=Thanh An - Con do mua roi
TTITLE4=Cao Duy - Mua thang gieng
TTITLE5=Khanh Dung - Mua thi tham
TTITLE6=Duc Minh - Ti tach mua roi
TTITLE7=Thanh Hoa - Con mua chieu
TTITLE8=My Hanh - Phai tan
TTITLE9=Thanh An - Nho ve em
EXTD=
EXTT0=
EXTT1=
EXTT2=
EXTT3=
EXTT4=
EXTT5=
EXTT6=
EXTT7=
EXTT8=
EXTT9=
PLAYORDER=
